<svg width="80" height="60" xmlns="http://www.w3.org/2000/svg"><g stroke="#3374FF" stroke-width="2" fill="none" fill-rule="evenodd" stroke-linecap="round" stroke-linejoin="round"><path d="M40 6.998v6M7 39.998h6M73 39.998h-6M56.494 11.425l-2.999 5.197M68.577 23.505l-5.196 3M68.58 56.507l-5.197-3M23.508 11.425l2.999 5.197M11.425 23.505l5.195 3M11.422 56.507l5.196-3M74.094 59.008C77.218 53.407 79 46.91 79 40.035c0-21.54-17.461-39.013-39-39.013-21.54 0-39 17.48-39 39.02 0 6.876 1.78 13.365 4.906 18.966"/><path d="M68.577 23.505C71.333 28.325 73 33.857 73 39.808c0 6.073-1.559 11.81-4.42 16.699M42.596 41.513l13.399 7.779M33.887 36.457l3.52 2.044M40.772 42.906a3 3 0 112.131-3.669 3 3 0 01-2.131 3.67z"/></g></svg>