<svg width="72" height="72" xmlns="http://www.w3.org/2000/svg"><g fill="none" fill-rule="evenodd"><path d="M71 66.998c0 2.2-1.8 4-4 4H5c-2.2 0-4-1.8-4-4v-62c0-2.2 1.8-4 4-4h62c2.2 0 4 1.8 4 4v62zM71 12.998H1M71 41.998H1" stroke="#3374FF" stroke-width="2" stroke-linecap="round" stroke-linejoin="round"/><path d="M8 6.998a1 1 0 11-2 0 1 1 0 112 0M12 6.998a1 1 0 11-2 0 1 1 0 112 0M16 6.998a1 1 0 11-2 0 1 1 0 112 0" fill="#3374FF"/><path d="M27 29.998h18M22 25.998h28M18 56.998a3.001 3.001 0 01-6 0 3.001 3.001 0 016 0zM32 56.998a3.001 3.001 0 01-6 0 3.001 3.001 0 016 0zM46 56.998a3.001 3.001 0 01-6 0 3.001 3.001 0 016 0zM60 56.998a3.001 3.001 0 01-6 0 3.001 3.001 0 016 0z" stroke="#3374FF" stroke-width="2" stroke-linecap="round" stroke-linejoin="round"/></g></svg>