<svg width="80" height="80" xmlns="http://www.w3.org/2000/svg"><g fill="none" fill-rule="evenodd"><path d="M28 14c0-6.648 5.352-12 12-12s12 5.352 12 12v6h-2v-6c0-5.552-4.447-10-10-10S30 8.448 30 14v6h-2v-6zm-2 6v-6c0-7.752 6.248-14 14-14s14 6.248 14 14v6h22c.576 0 1.066.278 1.394.605.329.328.606.82.606 1.395v37.945l1.994 17.945L80 78c0 .575-.277 1.067-.606 1.395-.328.327-.818.605-1.394.605H2c-.576 0-1.066-.278-1.395-.605C.277 79.067 0 78.575 0 78l.006-.11L2 59.945V22c0-.575.277-1.067.605-1.395C2.934 20.278 3.424 20 4 20h22zm5 2H4.043l-.023.02-.02.023V60l-.006.11L2.01 77.97l.01.01.023.02h75.914l.024-.02.01-.01-1.985-17.86L76 60V22.043l-.02-.023-.023-.02H31zm17-2H32v-6c0-4.448 3.553-8 8-8s8 3.552 8 8v6zm-19 6a1 1 0 100-2 1 1 0 000 2zM9 60a1 1 0 11-2 0 1 1 0 012 0zm32 0a1 1 0 11-2 0 1 1 0 012 0zm8 0a1 1 0 11-2 0 1 1 0 012 0zm7 1a1 1 0 100-2 1 1 0 000 2zm9-1a1 1 0 11-2 0 1 1 0 012 0zm7 1a1 1 0 100-2 1 1 0 000 2zM52 25a1 1 0 11-2 0 1 1 0 012 0zM16 61a1 1 0 100-2 1 1 0 000 2zm9-1a1 1 0 11-2 0 1 1 0 012 0zm7 1a1 1 0 100-2 1 1 0 000 2zm13-1a1 1 0 11-2 0 1 1 0 012 0zm7 1a1 1 0 100-2 1 1 0 000 2zm9-1a1 1 0 11-2 0 1 1 0 012 0zm7 1a1 1 0 100-2 1 1 0 000 2zm-55-1a1 1 0 11-2 0 1 1 0 012 0zm7 1a1 1 0 100-2 1 1 0 000 2zm9-1a1 1 0 11-2 0 1 1 0 012 0zm7 1a1 1 0 100-2 1 1 0 000 2z" fill="#3374FF"/><circle stroke="#3374FF" stroke-width="2" cx="40" cy="43" r="6"/></g></svg>