<svg width="72" height="72" xmlns="http://www.w3.org/2000/svg"><path d="M2 5c0-1.648 1.352-3 3-3h62c1.648 0 3 1.352 3 3v62c0 1.648-1.352 3-3 3H5c-1.648 0-3-1.352-3-3V5zm3-5C2.248 0 0 2.248 0 5v62c0 2.752 2.248 5 5 5h62c2.752 0 5-2.248 5-5V5c0-2.752-2.248-5-5-5H5zm44 23.9c0-2.216 1.914-3.9 4.1-3.9 2.13 0 3.9 1.625 3.9 3.9 0 2.163-1.562 4.1-3.9 4.1-.478 0-.937-.083-1.364-.235l-2.842 5.682a1 1 0 01-1.601.26l-3.275-3.274-2.957 3.113-3.429 8.816a1 1 0 01-1.783.163l-2.837-4.6-2.754 4.59a1 1 0 01-1.69.04l-2.866-4.299-3.353 10.06a1 1 0 01-1.87.075l-2.887-6.795-2.772 2.189a1 1 0 01-.888.179l-3.012-.837-3.286 3.552a1 1 0 01-1.468-1.358l3.7-4a1 1 0 011.002-.285l3.11.865 3.402-2.686a1 1 0 011.54.394l2.367 5.568 3.164-9.493a1 1 0 011.781-.239l3.124 4.685 2.787-4.645a1 1 0 011.708-.01l2.645 4.29 2.772-7.127c.047-.122.117-.232.207-.327l3.8-4a1 1 0 011.432-.018l3.02 3.019 2.334-4.67A4.082 4.082 0 0149 23.9zm4.1-1.9c-1.214 0-2.1.916-2.1 1.9 0 1.148.952 2.1 2.1 2.1 1.062 0 1.9-.863 1.9-2.1 0-1.125-.83-1.9-1.9-1.9zM53 36a1 1 0 100-2 1 1 0 000 2zm1-5a1 1 0 11-2 0 1 1 0 012 0zm-1-13a1 1 0 100-2 1 1 0 000 2zm1-5a1 1 0 11-2 0 1 1 0 012 0zm-1-3a1 1 0 100-2 1 1 0 000 2zm1-5a1 1 0 11-2 0 1 1 0 012 0zm-1 35a1 1 0 100-2 1 1 0 000 2zm1 3a1 1 0 11-2 0 1 1 0 012 0zm-1 5a1 1 0 100-2 1 1 0 000 2zm1 3a1 1 0 11-2 0 1 1 0 012 0zm-1 5a1 1 0 100-2 1 1 0 000 2zm1 3a1 1 0 11-2 0 1 1 0 012 0zm-1 5a1 1 0 100-2 1 1 0 000 2zm1 3a1 1 0 11-2 0 1 1 0 012 0z" fill="#3374FF" fill-rule="evenodd"/></svg>